<svg
  xmlns="http://www.w3.org/2000/svg"
  xmlns:xlink="http://www.w3.org/1999/xlink"
  width="164"
  zoomAndPan="magnify"
  viewBox="0 0 123 30.000001"
  height="40"
  preserveAspectRatio="xMidYMid meet"
  version="1.0"
>
  <defs><g /></defs>
  <g fill="#9013fe" fill-opacity="1">
    <g transform="translate(11.446003, 22.209679)">
      <g>
        <path
          d="M 2.234375 -20.265625 L 9.875 -20.265625 C 11.207031 -20.265625 12.425781 -20.050781 13.53125 -19.625 C 14.632812 -19.195312 15.570312 -18.5625 16.34375 -17.71875 C 17.113281 -16.875 17.710938 -15.816406 18.140625 -14.546875 C 18.566406 -13.285156 18.78125 -11.8125 18.78125 -10.125 C 18.78125 -8.445312 18.566406 -6.972656 18.140625 -5.703125 C 17.710938 -4.429688 17.113281 -3.375 16.34375 -2.53125 C 15.570312 -1.695312 14.632812 -1.066406 13.53125 -0.640625 C 12.425781 -0.210938 11.207031 0 9.875 0 L 2.234375 0 Z M 9.875 -3.921875 C 11.1875 -3.921875 12.21875 -4.285156 12.96875 -5.015625 C 13.726562 -5.753906 14.109375 -6.9375 14.109375 -8.5625 L 14.109375 -11.703125 C 14.109375 -13.328125 13.726562 -14.503906 12.96875 -15.234375 C 12.21875 -15.972656 11.1875 -16.34375 9.875 -16.34375 L 6.640625 -16.34375 L 6.640625 -3.921875 Z M 9.875 -3.921875 "
        />
      </g>
    </g>
  </g>
  <g fill="#9013fe" fill-opacity="1">
    <g transform="translate(31.681468, 22.209679)">
      <g>
        <path
          d="M 11 -2.5625 L 10.859375 -2.5625 C 10.722656 -2.164062 10.539062 -1.789062 10.3125 -1.4375 C 10.09375 -1.09375 9.804688 -0.785156 9.453125 -0.515625 C 9.109375 -0.242188 8.695312 -0.0351562 8.21875 0.109375 C 7.75 0.265625 7.207031 0.34375 6.59375 0.34375 C 5.019531 0.34375 3.832031 -0.171875 3.03125 -1.203125 C 2.226562 -2.242188 1.828125 -3.726562 1.828125 -5.65625 L 1.828125 -15.234375 L 6.125 -15.234375 L 6.125 -6.03125 C 6.125 -5.101562 6.285156 -4.390625 6.609375 -3.890625 C 6.941406 -3.390625 7.503906 -3.140625 8.296875 -3.140625 C 8.628906 -3.140625 8.957031 -3.1875 9.28125 -3.28125 C 9.613281 -3.375 9.90625 -3.515625 10.15625 -3.703125 C 10.40625 -3.890625 10.609375 -4.117188 10.765625 -4.390625 C 10.921875 -4.660156 11 -4.976562 11 -5.34375 L 11 -15.234375 L 15.296875 -15.234375 L 15.296875 0 L 11 0 Z M 11 -2.5625 "
        />
      </g>
    </g>
  </g>
  <g fill="#9013fe" fill-opacity="1">
    <g transform="translate(48.98468, 22.209679)">
      <g>
        <path
          d="M 13.265625 0 C 12.492188 0 11.847656 -0.238281 11.328125 -0.71875 C 10.816406 -1.207031 10.492188 -1.859375 10.359375 -2.671875 L 10.1875 -2.671875 C 9.957031 -1.679688 9.445312 -0.929688 8.65625 -0.421875 C 7.863281 0.0859375 6.882812 0.34375 5.71875 0.34375 C 4.1875 0.34375 3.015625 -0.0625 2.203125 -0.875 C 1.390625 -1.6875 0.984375 -2.757812 0.984375 -4.09375 C 0.984375 -5.695312 1.566406 -6.890625 2.734375 -7.671875 C 3.910156 -8.460938 5.503906 -8.859375 7.515625 -8.859375 L 9.921875 -8.859375 L 9.921875 -9.8125 C 9.921875 -10.550781 9.726562 -11.132812 9.34375 -11.5625 C 8.957031 -12 8.3125 -12.21875 7.40625 -12.21875 C 6.550781 -12.21875 5.867188 -12.035156 5.359375 -11.671875 C 4.859375 -11.304688 4.445312 -10.890625 4.125 -10.421875 L 1.5625 -12.6875 C 2.1875 -13.59375 2.96875 -14.300781 3.90625 -14.8125 C 4.84375 -15.332031 6.113281 -15.59375 7.71875 -15.59375 C 9.882812 -15.59375 11.507812 -15.117188 12.59375 -14.171875 C 13.675781 -13.222656 14.21875 -11.835938 14.21875 -10.015625 L 14.21875 -3.34375 L 15.640625 -3.34375 L 15.640625 0 Z M 7.3125 -2.640625 C 8.03125 -2.640625 8.644531 -2.796875 9.15625 -3.109375 C 9.664062 -3.421875 9.921875 -3.921875 9.921875 -4.609375 L 9.921875 -6.421875 L 7.84375 -6.421875 C 6.15625 -6.421875 5.3125 -5.847656 5.3125 -4.703125 L 5.3125 -4.265625 C 5.3125 -3.703125 5.484375 -3.289062 5.828125 -3.03125 C 6.179688 -2.769531 6.675781 -2.640625 7.3125 -2.640625 Z M 7.3125 -2.640625 "
        />
      </g>
    </g>
  </g>
  <g fill="#9013fe" fill-opacity="1">
    <g transform="translate(65.50402, 22.209679)">
      <g>
        <path
          d="M 6.265625 0 C 4.796875 0 3.71875 -0.351562 3.03125 -1.0625 C 2.34375 -1.78125 2 -2.820312 2 -4.1875 L 2 -21.484375 L 6.296875 -21.484375 L 6.296875 -3.34375 L 8.21875 -3.34375 L 8.21875 0 Z M 6.265625 0 "
        />
      </g>
    </g>
  </g>
  <g fill="#9013fe" fill-opacity="1">
    <g transform="translate(74.30079, 22.209679)">
      <g>
        <path
          d="M 4.15625 -16.859375 C 3.28125 -16.859375 2.644531 -17.054688 2.25 -17.453125 C 1.851562 -17.859375 1.65625 -18.367188 1.65625 -18.984375 L 1.65625 -19.625 C 1.65625 -20.238281 1.851562 -20.742188 2.25 -21.140625 C 2.644531 -21.546875 3.28125 -21.75 4.15625 -21.75 C 5.019531 -21.75 5.648438 -21.546875 6.046875 -21.140625 C 6.441406 -20.742188 6.640625 -20.238281 6.640625 -19.625 L 6.640625 -18.984375 C 6.640625 -18.367188 6.441406 -17.859375 6.046875 -17.453125 C 5.648438 -17.054688 5.019531 -16.859375 4.15625 -16.859375 Z M 2 -15.234375 L 6.296875 -15.234375 L 6.296875 0 L 2 0 Z M 2 -15.234375 "
        />
      </g>
    </g>
  </g>
  <g fill="#9013fe" fill-opacity="1">
    <g transform="translate(82.604007, 22.209679)">
      <g>
        <path
          d="M 7.34375 0 C 5.851562 0 4.722656 -0.375 3.953125 -1.125 C 3.191406 -1.882812 2.8125 -2.988281 2.8125 -4.4375 L 2.8125 -11.90625 L 0.671875 -11.90625 L 0.671875 -15.234375 L 1.734375 -15.234375 C 2.316406 -15.234375 2.710938 -15.375 2.921875 -15.65625 C 3.140625 -15.9375 3.25 -16.335938 3.25 -16.859375 L 3.25 -19.359375 L 7.109375 -19.359375 L 7.109375 -15.234375 L 10.125 -15.234375 L 10.125 -11.90625 L 7.109375 -11.90625 L 7.109375 -3.34375 L 9.90625 -3.34375 L 9.90625 0 Z M 7.34375 0 "
        />
      </g>
    </g>
  </g>
  <g fill="#9013fe" fill-opacity="1">
    <g transform="translate(93.723356, 22.209679)">
      <g>
        <path
          d="M 11.328125 -15.234375 L 15.328125 -15.234375 L 9.46875 2.34375 C 9.082031 3.53125 8.535156 4.40625 7.828125 4.96875 C 7.117188 5.53125 6.109375 5.8125 4.796875 5.8125 L 2.125 5.8125 L 2.125 2.46875 L 5 2.46875 L 5.515625 0.78125 L 0.171875 -15.234375 L 4.4375 -15.234375 L 6.671875 -8.125 L 7.78125 -3.71875 L 7.953125 -3.71875 L 9.09375 -8.125 Z M 11.328125 -15.234375 "
        />
      </g>
    </g>
  </g>
</svg>
