<svg xmlns="http://www.w3.org/2000/svg" width="23" height="20" viewBox="0 0 24 21">
  <path
    d="M4.97471 10.8967C7.74903 10.0272 10.3444 11.5054 10.3444 15.3315C10.3444 18.6359 8.1965 20.375 5.51167 20.375C2.20039 20.375 0.5 17.6793 0.5 13.5924C0.5 8.98369 2.46887 1.59239 9.44942 0.375V4.72282C6.6751 5.33152 4.97471 7.67935 4.97471 10.8967ZM18.1304 10.8967C20.9047 10.0272 23.5 11.5054 23.5 15.3315C23.5 18.6359 21.3521 20.375 18.6673 20.375C15.356 20.375 13.6556 17.6793 13.6556 13.5924C13.6556 8.98369 15.6245 1.59239 22.6051 0.375V4.72282C19.8307 5.33152 18.1304 7.67935 18.1304 10.8967Z"
  />
  <style>
    path {
      fill: #00342c;
    }
    @media (prefers-color-scheme: dark) {
      path {
        fill: #000;
      }
    }
  </style>
</svg>
